<svg width="100%" height="100%" viewBox="0 0 140 140" version="1.1" xmlns="http://www.w3.org/2000/svg"
     xml:space="preserve"
     style="fill-rule:evenodd;clip-rule:evenodd;stroke-linecap:round;stroke-linejoin:round;stroke-miterlimit:1.5;"><circle cx="70" cy="70" r="70"/>
    <g><path d="M25.439,112.127C18.925,100.153 15.085,85.451 15.085,69.57C15.085,53.689 18.925,38.988 25.439,27.013" style="fill:none;stroke:#fff;stroke-width:2.06px;"/></g>
    <g><path d="M114.56,27.013C121.074,38.988 124.915,53.689 124.915,69.57C124.915,85.451 121.074,100.153 114.56,112.127" style="fill:none;stroke:#fff;stroke-width:2.06px;"/></g>
    <g><path d="M25.438,27.014C37.977,20.792 53.371,17.124 70,17.124C86.629,17.124 102.023,20.792 114.561,27.014" style="fill:none;stroke:#fff;stroke-width:2.09px;"/></g>
    <g><path d="M114.561,112.127C102.023,118.349 86.629,122.016 70,122.016C53.371,122.016 37.977,118.349 25.438,112.127" style="fill:none;stroke:#fff;stroke-width:2.09px;"/></g>
    <g><path d="M16.522,52.957C30.292,48.817 49.177,46.261 70,46.261C90.823,46.261 109.708,48.817 123.477,52.957" style="fill:none;stroke:#fff;stroke-width:2.08px;"/></g>
    <g><path d="M52.605,120.643C48.269,107.493 45.593,89.457 45.593,69.57C45.593,49.684 48.269,31.647 52.605,18.497" style="fill:none;stroke:#fff;stroke-width:2.08px;"/></g>
    <g><path d="M123.477,86.183C109.708,90.324 90.823,92.88 70,92.88C49.177,92.88 30.292,90.324 16.522,86.183" style="fill:none;stroke:#fff;stroke-width:2.08px;"/></g>
    <g><path d="M87.395,18.497C91.73,31.647 94.407,49.684 94.407,69.57C94.407,89.457 91.73,107.493 87.395,120.643" style="fill:none;stroke:#fff;stroke-width:2.08px;"/></g></svg>